<?xml version="1.0" encoding="UTF-8" standalone="no"?>
<svg
   width="800"
   height="800"
   version="1.1"
   xml:space="preserve"
   id="svg94"
   sodipodi:docname="1573133907wings-cricut-freesvg.org.shadow.walker.svg"
   inkscape:version="1.2.2 (b0a8486, 2022-12-01)"
   xmlns:inkscape="http://www.inkscape.org/namespaces/inkscape"
   xmlns:sodipodi="http://sodipodi.sourceforge.net/DTD/sodipodi-0.dtd"
   xmlns="http://www.w3.org/2000/svg"
   xmlns:svg="http://www.w3.org/2000/svg"><sodipodi:namedview
   id="namedview96"
   pagecolor="#ffffff"
   bordercolor="#000000"
   borderopacity="0.25"
   inkscape:showpageshadow="2"
   inkscape:pageopacity="0.0"
   inkscape:pagecheckerboard="0"
   inkscape:deskcolor="#d1d1d1"
   showgrid="false"
   inkscape:zoom="2.2072013"
   inkscape:cx="545.48717"
   inkscape:cy="691.37328"
   inkscape:window-width="1792"
   inkscape:window-height="1008"
   inkscape:window-x="0"
   inkscape:window-y="25"
   inkscape:window-maximized="0"
   inkscape:current-layer="g92" />
 <metadata
   id="metadata5523">image/svg+xml</metadata>
 <defs
   id="defs5521">
  <clipPath
   clipPathUnits="userSpaceOnUse"
   id="clipPath5533">
   <path
   d="m0.75,657.75l600,0l0,-600l-600,0l0,600z"
   id="path5531" />
  </clipPath>
 
   
  </defs>
 <g
   class="layer"
   id="g92">
  <title
   id="title85">Layer 1</title>
  <g
   id="g5527"
   style="stroke-width:1.00023;stroke-dasharray:none"
   transform="matrix(1.3657536,0,0,-1.6576927,-11.147788,972.07922)">
    <g
   clip-path="url(#clipPath5533)"
   id="g5529"
   style="stroke-width:1.00023;stroke-dasharray:none">
     <path
   d="m 291.99,209.67 -22.49,-9.29 22.49,-9.29 9.29,-69.87 9.29,69.87 22.49,9.29 -22.49,9.29 -9.29,22.49 z m 40.57,-1.39 c 13.18,-12.38 5.19,-56.16 39.26,-53.01 -23.19,10.86 -15.91,51.76 -39.26,53.01 m 11.5,6.75 c 21.25,-8.93 31.19,-64.73 70.47,-45.82 -32.52,2.65 -42.04,54.71 -70.47,45.82 m 14.6,8.85 c 27.19,-3.26 56.75,-63.75 95.44,-29.33 -38.01,-7.6 -65.88,48.76 -95.44,29.33 m 12.5,15.31 c 32.73,0.65 77.78,-66.09 117.88,-18.91 -43.75,-15.3 -86.1,46.82 -117.88,18.91 m 8.1,14.51 c 39.16,12.71 117.69,-51.2 148.76,20.19 -47.08,-34.35 -120.68,24.98 -148.76,-20.19 m 8.64,20.63 c 43.4,24.74 152.45,-31.86 171.8,60.62 -47.48,-52.41 -149.55,-0.03 -171.8,-60.62 m 1.64,21.55 c 47.91,45.75 206.39,7.86 201.65,133.06 C 546.88,346.29 398.75,380.98 389.53,295.88 m 6.45,37.89 c 44.26,56.16 219.34,39.74 195.26,172.8 C 556.45,411.52 392.91,426.1 395.98,333.77 m -1.32,42.61 c 39.41,65.63 227.57,71.83 184.02,209.88 C 554.57,480.63 378.92,474.02 394.66,376.38 M 230.26,155.27 c 34.07,-3.15 26.07,40.62 39.26,53.01 -23.35,-1.25 -16.07,-42.15 -39.26,-53.01 m -42.71,13.94 c 39.28,-18.91 49.22,36.89 70.47,45.82 -28.43,8.89 -37.95,-43.18 -70.47,-45.82 m -39.57,25.34 c 38.69,-34.43 68.25,26.07 95.44,29.33 -29.57,19.43 -57.43,-36.93 -95.44,-29.33 m -34.94,25.73 c 40.1,-47.18 85.15,19.56 117.88,18.91 -31.78,27.91 -74.13,-34.21 -117.88,-18.91 m -38.98,53.61 c 31.07,-71.39 109.6,-7.48 148.76,-20.19 -28.08,45.17 -101.68,-14.16 -148.76,20.19 m -31.68,61.05 c 19.35,-92.47 128.4,-35.87 171.8,-60.61 -22.25,60.59 -124.32,8.21 -171.8,60.61 m -31.49,94 C 6.15,303.74 164.62,341.63 212.54,295.88 203.33,380.98 55.2,346.29 10.89,428.94 m -0.06,77.63 C -13.25,373.51 161.84,389.93 206.1,333.77 209.17,426.1 45.63,411.52 10.83,506.57 M 207.42,376.38 C 168.01,442.01 -20.15,448.21 23.4,586.26 47.51,480.63 223.16,474.02 207.42,376.38"
   fill="#ff4015"
   fill-rule="nonzero"
   id="path5535"
   style="display:inline;stroke-width:1.00022639;stroke-dasharray:none"
   inkscape:label="path5535" />
    </g>
   </g>
  <text
   fill="#ff4015"
   font-family="Fantasy"
   font-size="24px"
   font-style="italic"
   font-weight="bold"
   id="svg_1"
   stroke="#000000"
   stroke-width="0"
   text-anchor="middle"
   transform="matrix(4.9705994,0,0,4.8175365,-1587.7975,-2688.1876)"
   x="398.28"
   xml:space="preserve"
   y="722.53003"
   style="font-size:22.0372px;line-height:0px;white-space:pre;inline-size:184.614;display:inline;fill:#4d4d4d;stroke:#000000;stroke-width:0.345245;stroke-dasharray:none;stroke-opacity:0.146341"><tspan
     x="398.28"
     y="722.53003"
     id="tspan1749"><tspan
       style="font-style:normal;font-weight:900;font-family:'Snell Roundhand';-inkscape-font-specification:'Snell Roundhand Heavy';fill:#cccccc;fill-opacity:0.615854;stroke-linejoin:round;stroke-opacity:0.115854;paint-order:markers fill stroke"
       id="tspan1747">Shadow Walker</tspan></tspan></text>
 </g>
</svg>
